<?xml version="1.0" ?><svg id="Square-Arrow-10" style="enable-background:new 0 0 32 32;" version="1.1" viewBox="0 0 32 32" xml:space="preserve" xmlns="http://www.w3.org/2000/svg" xmlns:xlink="http://www.w3.org/1999/xlink"><g><path d="M15.262,21.289l1.406,1.423l6.035-5.965c0.393-0.388,0.396-1.021,0.008-1.415l-5.965-6.035l-1.423,1.406l5.262,5.324   L15.262,21.289z"/><path d="M10.668,22.675l6.035-5.964c0.188-0.187,0.295-0.44,0.297-0.706s-0.103-0.52-0.289-0.709l-5.965-6.036l-1.423,1.406   l5.262,5.324l-5.324,5.261L10.668,22.675z"/><path d="M30,0H2C0.897,0,0,0.897,0,2v28c0,1.103,0.897,2,2,2h28c1.103,0,2-0.897,2-2V2C32,0.897,31.103,0,30,0z M30,30L2,30.001V2   h28V30z"/></g></svg>